<svg id="sunweb" xmlns="http://www.w3.org/2000/svg" width="160" height="30" viewBox="0 0 160 30" preserveAspectRatio="xMidYMid meet"><title>Sunweb</title><path d="m106.5 7.8c-1.2 0-1.7 0.2-2 1.1 0 0-3.5 13.8-3.6 14.1-0.1-0.4-3.3-12.2-3.3-12.2-0.7-2.6-1.6-2.8-4-2.8-2.4 0-3.6 0.3-4.3 2.8 0 0-2.9 11.6-3 12C86.3 22.5 82.7 9 82.7 9 82.5 8.2 81.9 7.8 80.7 7.8l-3.2 0c-1.3 0-1.6 1.2-1.4 2.1l4.8 16.1c0.4 1.4 0.9 2.3 1.4 2.8 0.8 0.7 1.9 1.1 3.4 1.1 1.5 0 2.6-0.3 3.4-1.1 0.6-0.6 1-1.6 1.4-3l2.8-9.9 2.8 9.9c0.4 1.4 0.8 2.4 1.4 3 0.8 0.7 1.8 1.1 3.4 1.1 1.5 0 2.6-0.3 3.4-1.1 0.6-0.6 1.1-1.5 1.5-2.9l4.9-16.1c0.3-0.8 0-2-1.3-2l-3.1 0zM66.4 8C65.6 7.8 64.7 7.6 63.8 7.6c-1.9 0-3.8 0.6-5.2 1.7l0-0.7c0-1.3-0.5-1.6-1.6-1.3L53.3 8.1C52.1 8.4 51.9 9 51.9 9.8l0 18.6c0 0.8 0.6 1.4 1.4 1.4l3.9 0c0.8 0 1.4-0.6 1.4-1.4l0-12.2 0 0c0-2 1.6-3.6 3.6-3.6 2 0 3.6 1.1 3.6 3.6l0 0 0 12.2c0 0.6 0.5 1.4 1.4 1.4l3.9 0c0.8 0 1.4-0.6 1.4-1.4l0-12.1c0-4.5-2.6-7.4-6.1-8.4zm-21.7-0.2-3.9 0c-0.8 0-1.4 0.6-1.4 1.4l0 12.2 0 0c0 2-1.6 3.6-3.6 3.6-2 0-3.6-1.1-3.6-3.6l0 0 0-12.2c0-0.6-0.5-1.4-1.4-1.4l-3.9 0c-0.8 0-1.4 0.6-1.4 1.4l0 12.1c0 4.5 2.6 7.4 6.1 8.4 0.8 0.2 1.7 0.3 2.6 0.3 1.9 0 3.7-0.7 5.2-1.7 0 0 0.4-0.3 0.7-0.5 0 0 0.2 2.1 2.7 2.1l2 0c0.9 0 1.4-0.6 1.4-1.4l0-19.2c0-0.8-0.6-1.4-1.4-1.4zM12.6 12.1C9.8 11.1 7.7 10.2 7.7 8.2 7.8 6.4 9.3 5.4 12 5.5c2 0.1 3.1 0.5 4 0.9 0.6 0.3 1.2 0.6 1.8 0.6 1.4 0.1 1.9-1 2.6-2.3C20.7 4 20.6 3.3 20 2.7 19.6 2.3 18.4 1.7 17.4 1.3 16.2 0.8 14.6 0.4 12.5 0.4 9 0.2 6.1 1 4.1 2.5 2.2 4 1.1 6.1 1 8.6c-0.2 5.6 4.3 7.3 7.9 8.7 2.8 1.1 5.2 2 5.1 4.3-0.1 2.1-1.8 3.2-4.8 3.1C6.7 24.6 5.5 24.1 4.5 23.7 4 23.4 3.4 23 2.8 23 1.4 22.8 0.9 24.2 0.2 25.5c-0.5 0.9-0.2 1.8 0.9 2.4 1.3 0.7 3.5 1.9 7.6 2.1 3.6 0.1 6.7-0.6 8.8-2.2 2-1.5 3.1-3.8 3.2-6.5 0.2-6-4.4-7.7-8.2-9.1zm121.1 4.7c0-2.8-0.9-5.1-2.6-6.8-1.7-1.6-4-2.4-6.8-2.4-6.8 0-11.2 4.7-11.2 11.9 0 6.2 3.9 10.5 11.3 10.5 4 0 6.5-1.2 7.5-2 0.7-0.5 1.2-0.8 1.1-1.6-0.1-1.2-1-2.8-2.1-2.5-0.5 0.1-1.4 0.4-2 0.6-1 0.3-1.8 0.6-3.6 0.6-3.3 0-5.3-1.5-5.7-5l10.8 0c2.1 0 3.2-1 3.2-3.2zm23.8-6.5c-1.6-1.8-4-2.7-6.8-2.7-1.5 0-2 0.1-3 0.5-0.5 0.2-0.8 0.5-0.8 1l0 2.3c0 0.7 0.6 1.3 1.4 1.3l1 0 0 0c2.7 0 4 1.9 4 5.8 0 4-1.9 6.3-5.3 6.3-1.5 0-2.5-0.4-2.8-0.6l0-22.5c0-1.1-0.5-1.9-1.6-1.6l-3.7 0.9c-1.4 0.3-1.4 0.8-1.4 1.7l0 22.6c0 1.4 0.4 2 1 2.6 0.5 0.5 1.5 1 2.6 1.3C143.6 29.8 145.4 30 147.5 30c3.9 0 7.1-1.1 9.3-3.1 2.2-2 3.3-5 3.3-8.6 0-3.4-0.9-6.1-2.6-7.9zM119.7 16.2c0.6-2.4 2.1-3.8 4.1-3.8 2.1 0 3.5 1.4 3.9 3.8l-8 0z" fill="#ed2924"/></svg>
